<?xml version="1.0" encoding="utf-8"?>
<!-- Generator: Adobe Illustrator 27.4.1, SVG Export Plug-In . SVG Version: 6.00 Build 0)  -->
<svg version="1.1" id="Layer_1" xmlns="http://www.w3.org/2000/svg" xmlns:xlink="http://www.w3.org/1999/xlink" x="0px" y="0px"
	 viewBox="0 0 283.08 38.1" style="enable-background:new 0 0 283.08 38.1;" xml:space="preserve">
<style type="text/css">
	.st0{fill:#FFCB06;}
</style>
<g>
	<path class="st0" d="M18.35,14.9h-1.19l-5.04,23.12H0L8.89,0.21h17.14l2.24,25.71h1.05L41.84,0.21h17.14l-6.25,37.81H40.61
		l4.25-23.12h-1.19L32.43,38.03H20.3L18.35,14.9z"/>
	<path class="st0" d="M97.43,0.21l-1.9,9.49H77.92l-0.98,4.93h17.09l-1.79,8.96H75.15l-1,4.93h18.14l-2.43,9.49h-30.8l7.57-37.81
		H97.43z"/>
	<path class="st0" d="M96.06,38.03l7.57-37.81h13.18l-5.3,26.47h15.24l-2.79,11.34H96.06z"/>
	<path class="st0" d="M128.83,38.03l7.57-37.81h13.18l-5.3,26.47h15.24l-2.79,11.34H128.83z"/>
	<path class="st0" d="M199.97,0.21l-1.9,9.49h-17.61l-0.98,4.93h17.09l-1.79,8.96h-17.09l-1,4.93h18.14l-2.43,9.49h-30.8l7.57-37.81
		H199.97z"/>
	<path class="st0" d="M225.02,18.07h1.32l3.56-17.85h13.18l-7.57,37.81h-13.18l-5.64-17.85h-1.32l-3.59,17.85H198.6l7.57-37.81
		h13.18L225.02,18.07z"/>
	<path class="st0" d="M269.47,11.82l-5.25,26.21h-13.18l5.25-26.21h-11.84l2.85-11.6h35.78l-1.79,11.6H269.47z"/>
</g>
</svg>
